# xmcd
#
# Track frame offsets:
#	150
#	24062
#	41013
#	61161
#	76826
#	94554
#	106052
#	120280
#	135149
#	151260
#	163497
#	178124
#	195189
#	217457
#	232848
#	246194
#
# Disc length: 3456 seconds
#
# Revision: 0
# Processed by: cddbd v1.5.2PL0 Copyright (c) Steve Scherf et al.
# Submitted via: audiograbber 1.83.01
#
DISCID=bb0d7e10
DTITLE=Chuck Simmons - Hustler´s Strut
DYEAR=2003
DGENRE=New Orleans Funk
TTITLE0=Hustler´s Strut Parts 1 and 2
TTITLE1=Don´t Send Me No Doctor
TTITLE2=Don´t Create Complications
TTITLE3=Everybody Needs Somebody
TTITLE4=Something´s  Going On in My Home
TTITLE5=Lay It on Me Part 1
TTITLE6=Funky Broom
TTITLE7=Make This a Better World
TTITLE8=Am I Grooving You
TTITLE9=Doin´ the Sissy
TTITLE10=I´m Wondering
TTITLE11=Run Away
TTITLE12=You´re Not the One for Me
TTITLE13=Kid Stuff
TTITLE14=Why Should They Pay
TTITLE15=Lay It on Me Part 2
EXTD=Rare and Unreleased Lower Ninth Ward new Orleans Funk 1965-1978
EXTT0=
EXTT1=
EXTT2=
EXTT3=
EXTT4=
EXTT5=
EXTT6=
EXTT7=
EXTT8=
EXTT9=
EXTT10=
EXTT11=
EXTT12=
EXTT13=
EXTT14=
EXTT15=
PLAYORDER=
